<svg height='100px' width='100px'  fill="#ffffff" xmlns:x="http://ns.adobe.com/Extensibility/1.0/" xmlns:i="http://ns.adobe.com/AdobeIllustrator/10.0/" xmlns:graph="http://ns.adobe.com/Graphs/1.0/" xmlns="http://www.w3.org/2000/svg" xmlns:xlink="http://www.w3.org/1999/xlink" version="1.1" x="0px" y="0px" viewBox="0 0 100 100" style="enable-background:new 0 0 100 100;" xml:space="preserve"><style type="text/css">
	.st0{fill-rule:evenodd;clip-rule:evenodd;}
</style><g><g i:extraneous="self"><path class="st0" d="M80.3,36.6c-0.1,0.4-0.3,0.8-0.4,1.2c-1.6,4.8-2.7,9.8-2.8,14.9l0,0c0,1.1-1,2-2.1,2c-1,0-1.9-0.8-2-1.8    c-0.6-5.6-0.2-11.1,0.8-16.6c0.2-0.9,0.4-1.7,0.5-2.6c-3-1.3-6.2-2.4-9.5-3.2c-1.1,2.3-2,4.7-2.8,7.2c-1.6,4.8-2.7,9.8-2.8,14.9    l0,0c0,1.1-1,2-2.1,2c-1,0-1.9-0.8-2-1.8c-0.6-5.6-0.2-11.1,0.8-16.6c0.4-2.4,1-4.7,1.6-7c-2.5-0.3-5.1-0.5-7.7-0.5    c-0.7,0-1.4,0.1-2.1,0.1c-1.4,2.9-2.6,5.8-3.6,8.8c-1.6,4.8-2.7,9.8-2.8,14.9l0,0c0,1.1-1,2-2.1,2c-1,0-1.9-0.8-2-1.8    c-0.6-5.6-0.2-11.1,0.8-16.6c0.4-2.2,0.9-4.3,1.5-6.5c-4.1,0.7-7.9,1.8-11.5,3.1c-0.6,1.5-1.2,3.1-1.8,4.7    c-1.6,4.8-2.7,9.8-2.8,14.9l0,0c0,1.1-1,2-2.1,2c-1,0-1.9-0.8-2-1.8c-0.6-5.4-0.2-10.8,0.8-16.1C9.5,42.2,2.5,50.8,2.5,57.5    c0,11.8,21.3,13.9,47.5,13.9s47.5-2.1,47.5-13.9C97.5,50.9,90.8,42.6,80.3,36.6z"></path></g></g></svg>